Patient4_TMGait_0pt5_02_right_43_EMG.mot
version=1
nRows=20
nColumns=33
inDegrees=no
endheader
time	1LAddLong	2LGlutMax	3LGlutMed	4LIliopsoas	5LSemiMemb	6LBicFemLong	7LRecFem	8LVastMed	9LVastLat	10LGasMed	11LTibAnt	12lTibPost	13LPeroneusLong	14LSol	15LExtDigLong	16LFlexDigLong	17RAddLong	18RGlutMax	19RGlutMed	20RIliopsoas	21RSemiMemb	22RBicFemLong	23RRecFem	24RVastMed	25RVastLat	26RGasMed	27RTibAnt	28RTibPost	29RPeroneusLong	30RSol	31RExtDigLong	32RFlexDigLong
56.13	0.012207	-0.015106	-0.03891	0.032196	0.010071	-0.63965	-0.010071	-0.004883	0.066833	-0.000153	0.13473	-0.013123	0.28259	-0.21362	-0.23605	-0.007019	-0.093079	-0.18524	0.33295	-0.15793	0.018768	0.02655	0.27664	-0.28244	-0.026093	-0.005188	0.38147	-0.003815	0.027313	0.005493	0.000305	-0.032959
56.131	0.008392	-0.014343	-0.007019	-0.001984	0.004425	-0.34241	0.083466	-0.007019	-0.010376	-0.019531	-0.032959	-0.007172	0.33402	-0.12482	-0.17838	0.001678	-0.12253	-0.17151	0.37064	0.077362	-0.018311	0.025177	0.23987	-0.30106	-0.015869	-0.003357	0.57861	-0.00412	-0.12817	-0.002441	-0.007019	-0.031128
56.132	0.004883	-0.020447	-0.048523	-0.007324	-0.006714	-0.11398	0.11536	-0.026855	-0.057983	-0.003204	-0.1236	-0.018768	-0.6488	0.045319	-0.068054	0.003815	-0.16251	-0.27893	0.41657	0.12543	-0.033112	0.019989	0.24658	-0.36011	-0.031433	0.000458	0.33234	-0.001221	-0.15701	-0.05722	-0.002747	-0.024414
56.133	0.002441	-0.007629	0.094147	0.002747	0.014343	-0.11887	0.082245	0.019989	0.000305	0.093384	-0.086365	-0.014496	-0.49805	0.006714	-0.06134	0.00885	-0.18829	-0.21011	0.36713	0.061493	-0.004578	0.010376	0.061493	-0.31479	-0.005188	0.007019	-0.006561	-0.004272	-0.10101	-0.063934	-0.003662	-0.023041
56.134	0.025177	0.04425	0.097809	-0.002899	0.032654	-0.3009	-0.023956	0.003967	0.10559	0.16937	-0.058289	-0.004578	0.89539	-0.086975	0.033264	0.003357	-0.16953	-0.079803	0.016174	-0.037689	0.017548	-0.004578	-0.10284	-0.30563	0.016327	-0.007782	0.22003	-0.002289	-0.23392	-0.035095	0.000763	-0.018311
56.135	0.020905	0.070343	-0.090637	0.016327	0.045013	-0.1976	-0.01236	0.00885	0.084076	0.13275	-0.070038	-0.008087	1.9238	-0.2124	0.23758	0	-0.14313	0.014801	-0.11688	-0.070648	0.042114	-0.005035	-0.048218	-0.21011	0.011902	-0.009766	0.57922	-0.003204	-0.24246	-0.048828	-0.001526	-0.012512
56.136	0.011292	0.00885	-0.1857	0.014343	0.046844	-0.24551	0.038757	0.008545	0.037537	0.19836	0.014343	-0.011749	0.35812	-0.1712	0.34561	0.00412	-0.082092	-0.032349	-0.003967	-0.092316	0.041656	0.025024	-0.012665	-0.15701	0.011444	-0.006256	0.63019	-0.001831	-0.17868	-0.055847	-0.000305	-0.01236
56.137	0.018463	0.00473	-0.10788	0.008545	0.029907	-0.29022	-0.029297	-0.003662	0.070343	0.28839	0.030518	-0.008087	-0.89401	-0.055389	0.29984	0.007019	-0.046997	-0.065002	-0.22339	-0.13184	0.024719	0.026703	0.032043	-0.14603	0.019226	-0.003662	0.23331	-0.000305	-0.021667	-0.025635	-0.002136	0.003052
56.138	0.01709	0.045929	0.13794	0.007629	0.021515	-0.1474	0.031128	-0.017242	0.032806	0.2829	-0.006866	-0.003204	-0.72571	-0.12344	0.15839	0.007782	-0.017548	-0.10132	-0.44601	-0.19043	0.025787	0.03418	-0.41031	-0.13809	0.002594	-0.013275	0.18021	-0.001678	0.083466	0.040283	0.000305	0.01236
56.139	0.012207	0.053406	-0.11414	0.004425	0.012054	0.006256	-0.015259	-0.015106	-0.010681	0.089111	-0.026398	-0.010071	-0.1416	-0.12451	-0.035706	-0.005341	-0.023956	-0.053864	-0.40955	-0.1799	0.031891	0.005035	-0.35584	-0.079346	-0.024261	-0.014648	0.37415	0.001678	0.25711	0.070953	0.000305	0.005188
56.14	0.001831	0.054779	-0.35111	0.003815	0.002594	0.072937	-0.082855	0.006256	-0.063019	-0.037384	-0.029602	-0.013275	-0.75211	-0.092468	-0.15396	-0.007172	-0.037537	0.023346	0.19119	-0.1648	0.015259	0.023956	-0.40268	-0.095673	0.011139	-0.015106	0.35675	-0.00351	0.37781	0.043945	-0.00473	0.00885
56.141	-0.00473	0.052643	-0.17029	0.026093	-0.011292	0.020294	-0.051117	0.037689	0.003204	-0.15656	0.0177	-0.010681	-0.16449	-0.1236	-0.08728	-0.007324	-0.039368	-0.030975	0.11047	-0.054779	0.007629	0.011597	-0.40588	-0.059662	0.020447	-0.014191	0.45456	0	-0.14786	-0.03067	-0.004578	0.005341
56.142	-0.002899	0.049286	0.18066	0.010376	-0.001678	-0.038757	-0.060272	0.055237	0.046692	-0.38818	0.019684	-0.012817	0.20065	-0.071869	0.016174	-0.02243	-0.027161	-0.005035	0.26993	0.007019	0.005035	0.020142	-0.10117	-0.019379	0.043182	-0.010681	0.49362	0.004272	-0.11261	-0.13351	-0.003357	0.004578
56.143	0.002747	0.028229	0.20706	0.015106	-0.011444	-0.039063	-0.032196	0.040741	0.061646	-0.33295	0.014038	-0.010834	0.26932	-0.019531	-0.054169	-0.003357	0.011292	-0.049438	0.3743	0.041504	0.014343	0.062714	0.15778	0.042725	0.05661	-0.004578	-0.47409	-0.000458	0.12222	-0.17258	-0.006256	0.01358
56.144	0.005951	0.018005	0.17883	0.038147	-0.020142	0.019073	-0.060577	0.011902	0.036926	-0.10223	0.059509	-0.01358	-0.035553	0.10605	0.023804	-0.019226	0.03952	-0.022125	0.34119	0.077057	0.012817	0.06073	0.28854	0.13687	0.10101	-0.003204	-0.80963	-0.002594	-0.28809	-0.12985	-0.004578	0.007629
56.145	0.005646	0.014801	0.12054	0.029602	-0.036469	0.076447	0.011749	0.003815	0.027008	-0.043793	0.075226	-0.01297	-0.1918	0.15015	0.15762	-0.021973	0.048065	-0.091248	0.19119	0.08728	0.027466	0.07019	0.098114	0.15625	0.1561	-0.009155	-0.70175	-0.001221	-0.63187	-0.077515	-0.005951	-0.002899
56.146	0.008392	0.018311	0.10834	-0.010986	-0.03067	0.2002	-0.055084	0.020599	0.046844	-0.016632	0.084229	-0.012512	-0.51346	-0.13306	0.081177	-0.014954	0.034637	-0.052032	0.14435	0.020599	0.034332	0.074921	-0.12238	0.090637	0.12299	-0.007629	-0.61966	0.010986	0.072937	-0.093536	-0.002747	-0.000916
56.147	0.005493	0.046539	0.21606	-0.024567	0.02121	0.28686	-0.049591	-0.058441	0.17731	-0.030212	-0.004272	-0.010529	-0.48935	-0.17532	0.011749	-0.018768	0.008087	-0.070496	0.04303	-0.036163	0.038452	0.052032	-0.093994	0.06012	0.10696	-0.009613	-0.3305	-0.002289	0.48248	-0.06012	-0.003815	-0.006104
56.148	0.002747	0.036926	0.18921	-0.00824	0.03952	0.35645	0.035706	-0.010834	0.25391	-0.065155	-0.052338	-0.012665	0.095215	-0.061646	0.015411	-0.012512	0.006104	-0.074921	0.065002	-0.037994	-0.026093	0.050964	-0.052795	0.069885	0.11047	-0.003052	0.23682	-0.000153	0.15442	-0.11414	-0.00061	-0.011597
56.149	0.007935	0.070953	0.12451	0.003815	0.033569	0.36148	0.006409	-0.012207	0.097961	-0.063782	-0.039063	-0.015411	0.26001	0.005341	-0.057526	-0.002747	-0.015564	-0.041962	0.39444	-0.030518	-0.07309	0.0737	-0.1265	-0.012207	0.10468	-0.002899	0.32501	-0.000763	0.22171	-0.12054	-0.002441	-0.010071
